<?xml version="1.0" encoding="utf-8"?>
<!-- Generator: Adobe Illustrator 14.0.0, SVG Export Plug-In . SVG Version: 6.00 Build 43363)  -->
<!DOCTYPE svg PUBLIC "-//W3C//DTD SVG 1.1//EN" "http://www.w3.org/Graphics/SVG/1.1/DTD/svg11.dtd">
<svg version="1.1"
	 id="svg2325" xmlns:rdf="http://www.w3.org/1999/02/22-rdf-syntax-ns#" xmlns:svg="http://www.w3.org/2000/svg" xmlns:sodipodi="http://sodipodi.sourceforge.net/DTD/sodipodi-0.dtd" xmlns:inkscape="http://www.inkscape.org/namespaces/inkscape" xmlns:dc="http://purl.org/dc/elements/1.1/" xmlns:cc="http://creativecommons.org/ns#" inkscape:output_extension="org.inkscape.output.svg.inkscape" inkscape:export-filename="/home/adrien/Bureau/En cours/Wikipedia.fr/Final/communauté48.png" sodipodi:docname="Recherche_silhouette kw.svg" sodipodi:docbase="/home/adrien" inkscape:export-ydpi="135" inkscape:export-xdpi="135" sodipodi:version="0.32" inkscape:version="0.46"
	 xmlns="http://www.w3.org/2000/svg" xmlns:xlink="http://www.w3.org/1999/xlink" x="0px" y="0px" width="32px" height="32px"
	 viewBox="0 0 32 32" enable-background="new 0 0 32 32" xml:space="preserve">
<defs>
	
	
		<inkscape:perspective  id="perspective60" inkscape:vp_z="32 : 16 : 1" inkscape:vp_y="0 : 1000 : 0" inkscape:vp_x="0 : 16 : 1" sodipodi:type="inkscape:persp3d" inkscape:persp3d-origin="16 : 10.666667 : 1">
		</inkscape:perspective>
</defs>
<sodipodi:namedview  id="base" showgrid="true" pagecolor="#ffffff" bordercolor="#666666" borderopacity="1.0" inkscape:zoom="4" inkscape:cx="43.784281" inkscape:cy="24.222005" inkscape:grid-points="true" inkscape:grid-bbox="true" inkscape:pageopacity="0.0" inkscape:pageshadow="2" inkscape:document-units="px" inkscape:current-layer="layer1" inkscape:window-width="934" inkscape:window-height="675" inkscape:window-x="346" inkscape:window-y="99">
	</sodipodi:namedview>
<g id="layer1" inkscape:label="Layer 1" inkscape:groupmode="layer">
	<path id="rect3229" sodipodi:nodetypes="cccccccccccssssssccsssssssccssccssssssssc" fill="#BEBCAB" d="M2.688,0
		C1.171,0.153,0,1.442,0,3v26c0,1.662,1.338,3,3,3h26c1.662,0,3-1.338,3-3V3c0-1.662-1.338-3-3-3H3C2.896,0,2.789-0.01,2.688,0z
		 M12.688,2.5c0.045-0.003,0.08,0.003,0.125,0c0.006,0,0.026,0,0.031,0c0.021,0,0.042,0,0.063,0c0.005,0,0.025,0,0.031,0
		c0.188-0.01,0.373,0,0.563,0c6.072,0,11,4.928,11,11c0,2.293-0.705,4.425-1.906,6.188l6.625,6.5
		c0.003,0.004,0.028,0.027,0.031,0.031c0.008,0.014,0.024,0.051,0.031,0.063c0.01,0.016,0.023,0.045,0.031,0.063
		c0.228,0.539-0.266,1.653-1.219,2.625s-2.051,1.469-2.594,1.25c-0.018-0.008-0.047-0.021-0.063-0.031
		c-0.012-0.008-0.045-0.021-0.063-0.031c-0.004-0.003-0.027-0.028-0.031-0.031l-6.938-6.813C16.925,24.056,15.27,24.5,13.5,24.5
		c-6.072,0-11-4.928-11-11C2.5,7.709,7.005,2.928,12.688,2.5z M12.75,6C8.963,6.379,6,9.614,6,13.5c0,4.141,3.36,7.5,7.5,7.5
		c4.141,0,7.5-3.359,7.5-7.5C21,9.36,17.641,6,13.5,6c-0.162,0-0.31-0.01-0.469,0C13.023,6,13.008,6,13,6c-0.031,0-0.094,0-0.125,0
		c-0.008,0-0.023,0-0.031,0C12.814,6.002,12.78,5.997,12.75,6z"/>
</g>
</svg>
